<?xml version="1.0" encoding="utf-8"?>
<!-- Generator: Adobe Illustrator 16.0.0, SVG Export Plug-In . SVG Version: 6.00 Build 0)  -->
<!DOCTYPE svg PUBLIC "-//W3C//DTD SVG 1.1//EN" "http://www.w3.org/Graphics/SVG/1.1/DTD/svg11.dtd">
<svg version="1.1" xmlns="http://www.w3.org/2000/svg" xmlns:xlink="http://www.w3.org/1999/xlink" x="0px" y="0px" width="auto"
	 height="auto" viewBox="0 0 50 50" enable-background="new 0 0 50 50" xml:space="preserve">
<g id="Capa_1">
</g>
<g id="Capa_2">
</g>
<g id="Capa_3">
	<g>
		<circle fill="#B7BCBD" cx="22.331" cy="27.691" r="3.742"/>
		<path d="M38.306,24.166l-1.836,0.87c0.031,0.391,0.051,1.879,0.051,2.283c0,7.574-6.162,13.736-13.736,13.736
			c-7.58,0-13.742-6.162-13.742-13.736c0-3.614,1.408-6.9,3.695-9.354l0.029,0.028l0.844-0.844l-2.322-2.322h7.898l-0.543,7.964
			l-2.465-2.464l-0.439,0.439l-0.012-0.017c-0.057,0.054-0.096,0.124-0.146,0.178l-0.246,0.244l0.023,0.024
			c-1.562,1.761-2.547,4.055-2.547,6.592c0,5.496,4.473,9.969,9.973,9.969c5.496,0,9.965-4.473,9.965-9.969
			c0-0.342-0.014-0.682-0.051-1.018l-1.174,0.262c0.023,0.25,0.031,0.502,0.031,0.756c0,4.84-3.934,8.777-8.771,8.777
			c-4.844,0-8.777-3.938-8.777-8.777c0-2.209,0.844-4.211,2.195-5.753l2.334,2.334l1.193,1.266l0.723-12H8.407l3.014,3.013
			c-2.627,2.792-4.248,6.54-4.248,10.671c0,8.602,7.006,15.604,15.611,15.604S38.39,35.92,38.39,27.318
			C38.39,26.779,38.362,24.691,38.306,24.166z"/>
		<path d="M29.159,26.664c-2.34,0-4.418-0.48-5.166-1.199c-1.457-1.399-1.814-6.347-0.094-10.632
			c1.166-2.896,4.244-7.754,11.789-7.754c1.934,0,4.062,0.324,6.33,0.962l0.367,0.104l0.061,0.375
			c0.967,5.928,0.086,10.546-2.621,13.729C36.437,26.234,31.239,26.664,29.159,26.664z M35.688,8.272
			c-6.5,0-9.395,3.81-10.682,7.006c-1.684,4.188-1.07,8.477-0.189,9.323c0.369,0.352,1.996,0.87,4.342,0.87
			c1.912,0,6.691-0.389,9.756-3.994c2.414-2.836,3.223-7.002,2.414-12.387C39.304,8.547,37.409,8.272,35.688,8.272z"/>
		<path fill="#35B9CE" d="M26.233,23.38c-1.992-1.905-1.23-16.529,13.238-12.455C41.901,25.861,27.763,24.845,26.233,23.38z"/>
		<path d="M21.646,28.305c-0.158,0-0.316-0.062-0.434-0.186c-0.225-0.24-0.217-0.617,0.023-0.844L41.448,8.183
			c0.242-0.226,0.619-0.215,0.844,0.023c0.225,0.24,0.217,0.617-0.023,0.844L22.056,28.143
			C21.938,28.252,21.794,28.305,21.646,28.305z"/>
		<rect x="32.61" y="7.677" width="1.193" height="8.726"/>
		<rect x="26.843" y="10.619" width="1.195" height="11.627"/>
		<rect x="27.433" y="21.649" width="11.598" height="1.193"/>
		<rect x="33.206" y="15.806" width="8.455" height="1.193"/>
	</g>
</g>
</svg>
