<?xml version="1.0" encoding="utf-8"?>
<!-- Generator: Adobe Illustrator 16.0.0, SVG Export Plug-In . SVG Version: 6.00 Build 0)  -->
<!DOCTYPE svg PUBLIC "-//W3C//DTD SVG 1.1//EN" "http://www.w3.org/Graphics/SVG/1.1/DTD/svg11.dtd">
<svg version="1.1" xmlns="http://www.w3.org/2000/svg" xmlns:xlink="http://www.w3.org/1999/xlink" x="0px" y="0px" width="auto"
	 height="auto" viewBox="0 0 50 50" enable-background="new 0 0 50 50" xml:space="preserve">
<g id="Capa_1">
</g>
<g id="Capa_2">
</g>
<g id="Capa_3">
	<g>
		<path d="M6.675,30.642C6.386,21.311,13.164,15.033,18.61,9.991c2.511-2.324,4.678-4.332,5.791-6.255l0.596-1.032l0.609,1.025
			c0.527,0.89,2.055,2.297,3.822,3.929c5.201,4.798,13.906,12.829,13.906,22.961h-1.395c0-9.522-8.1-16.991-13.457-21.936
			c-1.439-1.326-2.654-2.445-3.438-3.37c-1.283,1.812-3.253,3.635-5.486,5.704C14.32,15.865,7.801,21.904,8.072,30.599L6.675,30.642
			z"/>
		<path d="M23.762,47.297c-0.878-0.096-1.862-0.281-2.845-0.531l0.347-1.354c1.162,0.297,2.084,0.434,2.654,0.498L23.762,47.297z
			 M26.736,47.221l-0.215-1.381c0.828-0.131,1.738-0.338,2.631-0.602l0.396,1.336C28.6,46.857,27.625,47.082,26.736,47.221z
			 M18.177,45.889c-0.907-0.346-1.789-0.75-2.623-1.197l0.663-1.23c0.78,0.422,1.608,0.799,2.458,1.125L18.177,45.889z M32.256,45.6
			l-0.547-1.283c0.84-0.359,1.652-0.768,2.418-1.215l0.703,1.207C34.018,44.785,33.15,45.219,32.256,45.6z M13.109,43.141
			c-0.791-0.59-1.524-1.238-2.177-1.926l1.011-0.963c0.6,0.631,1.272,1.227,2.001,1.768L13.109,43.141z M37.219,42.676l-0.869-1.094
			c0.713-0.568,1.367-1.184,1.949-1.829l1.039,0.931C38.705,41.389,37.994,42.059,37.219,42.676z M9.127,38.923
			c-0.525-0.818-0.973-1.693-1.33-2.602l1.299-0.512c0.324,0.824,0.73,1.617,1.207,2.359L9.127,38.923z M41.084,38.349l-1.195-0.727
			c0.461-0.754,0.848-1.559,1.152-2.387l1.312,0.482C42.014,36.632,41.588,37.517,41.084,38.349z M6.99,33.522
			c-0.179-0.916-0.283-1.887-0.314-2.881l1.396-0.043c0.027,0.92,0.125,1.812,0.29,2.656L6.99,33.522z M43.1,32.901l-1.379-0.234
			c0.113-0.666,0.188-1.365,0.219-2.076l1.395,0.059C43.303,31.423,43.221,32.179,43.1,32.901z"/>
		<path fill="#35B9CE" d="M25.209,8.374c-3.036,5.254-14.933,11.033-14.595,21.967c0.336,10.937,10.899,13.3,14.595,13.3
			c4.395,0,14.164-2.75,14.602-13.3C39.811,19.311,27.041,11.456,25.209,8.374z"/>
		<path d="M25.064,39.001c-5.389,0-9.775-4.385-9.775-9.775c0-5.39,4.386-9.774,9.775-9.774v1.395c-4.621,0-8.379,3.759-8.379,8.38
			c0,4.621,3.758,8.381,8.379,8.381V39.001z"/>
		<path d="M26.383,38.872l-0.191-1.383c0.432-0.059,0.854-0.148,1.262-0.27l0.396,1.338C27.375,38.698,26.885,38.806,26.383,38.872z
			 M29.254,38.021l-0.598-1.262c0.391-0.186,0.764-0.398,1.119-0.641l0.781,1.16C30.143,37.556,29.709,37.806,29.254,38.021z
			 M31.732,36.343l-0.949-1.023c0.314-0.293,0.605-0.609,0.875-0.947l1.094,0.871C32.439,35.634,32.1,36.003,31.732,36.343z
			 M33.592,33.993l-1.215-0.688c0.211-0.371,0.391-0.762,0.545-1.168l1.307,0.496C34.051,33.103,33.838,33.56,33.592,33.993z
			 M34.643,31.185l-1.367-0.281c0.086-0.414,0.141-0.84,0.16-1.273l1.395,0.066C34.807,30.196,34.744,30.696,34.643,31.185z
			 M33.396,28.339c-0.043-0.432-0.123-0.854-0.234-1.264l1.352-0.358c0.129,0.483,0.221,0.981,0.273,1.478L33.396,28.339z
			 M32.734,25.865c-0.174-0.395-0.381-0.773-0.611-1.133l1.174-0.758c0.271,0.422,0.514,0.867,0.713,1.325L32.734,25.865z
			 M31.346,23.707c-0.287-0.32-0.598-0.619-0.93-0.893l0.891-1.078c0.387,0.32,0.746,0.668,1.08,1.042L31.346,23.707z M29.365,22.07
			c-0.365-0.221-0.752-0.412-1.15-0.572l0.52-1.295c0.469,0.188,0.916,0.412,1.346,0.666L29.365,22.07z"/>
		<path d="M23.232,23.583c-0.179,0-0.357-0.066-0.493-0.203c-0.273-0.273-0.273-0.715,0-0.988l1.982-1.984l-1.813-1.814
			c-0.273-0.273-0.273-0.715,0-0.988c0.272-0.271,0.715-0.271,0.987,0l2.802,2.803l-2.971,2.972
			C23.589,23.517,23.411,23.583,23.232,23.583z"/>
	</g>
</g>
</svg>
