<?xml version="1.0" encoding="utf-8"?>
<!-- Generator: Adobe Illustrator 16.0.0, SVG Export Plug-In . SVG Version: 6.00 Build 0)  -->
<!DOCTYPE svg PUBLIC "-//W3C//DTD SVG 1.1//EN" "http://www.w3.org/Graphics/SVG/1.1/DTD/svg11.dtd">
<svg version="1.1" xmlns="http://www.w3.org/2000/svg" xmlns:xlink="http://www.w3.org/1999/xlink" x="0px" y="0px" width="auto"
	 height="auto" viewBox="0 0 50 50" enable-background="new 0 0 50 50" xml:space="preserve">
<g id="Capa_1">
</g>
<g id="Capa_2">
</g>
<g id="Capa_3">
	<g>
		<g>
			<path fill="#35B9CE" d="M32.353,25.686c0,4.047-3.284,7.332-7.338,7.332c-4.047,0-7.331-3.285-7.331-7.332
				c0-4.051,3.284-7.333,7.331-7.333C29.068,18.353,32.353,21.634,32.353,25.686z"/>
			<path d="M24.998,33.943c-4.464,0-8.097-3.631-8.097-8.096c0-4.464,3.633-8.097,8.097-8.097v1.157
				c-3.827,0-6.939,3.112-6.939,6.939c0,3.826,3.112,6.939,6.939,6.939V33.943z"/>
			<path d="M26.087,33.834l-0.154-1.146c0.357-0.047,0.706-0.121,1.041-0.223l0.331,1.109
				C26.909,33.691,26.503,33.779,26.087,33.834z M28.467,33.129l-0.496-1.045c0.321-0.152,0.634-0.33,0.926-0.529l0.65,0.959
				C29.205,32.744,28.844,32.949,28.467,33.129z M30.521,31.74l-0.785-0.846c0.259-0.244,0.501-0.506,0.723-0.785l0.906,0.719
				C31.108,31.152,30.825,31.457,30.521,31.74z M32.059,29.793l-1.008-0.566c0.173-0.309,0.324-0.631,0.453-0.969l1.079,0.412
				C32.437,29.061,32.26,29.436,32.059,29.793z M32.931,27.469l-1.135-0.232c0.073-0.344,0.115-0.697,0.131-1.055l1.158,0.053
				C33.063,26.654,33.012,27.07,32.931,27.469z M31.897,25.113c-0.038-0.358-0.104-0.708-0.193-1.047l1.119-0.297
				c0.105,0.397,0.181,0.805,0.225,1.224L31.897,25.113z M31.352,23.063c-0.145-0.326-0.313-0.639-0.507-0.935l0.967-0.632
				c0.226,0.34,0.424,0.709,0.598,1.097L31.352,23.063z M30.197,21.276c-0.235-0.267-0.489-0.513-0.767-0.74l0.736-0.893
				c0.321,0.265,0.622,0.554,0.897,0.864L30.197,21.276z M28.559,19.922c-0.308-0.182-0.625-0.339-0.958-0.474l0.433-1.072
				c0.39,0.156,0.761,0.341,1.116,0.552L28.559,19.922z"/>
			<path d="M23.484,21.176c-0.147,0-0.295-0.056-0.409-0.169c-0.226-0.225-0.226-0.592,0-0.817l1.642-1.643l-1.506-1.503
				c-0.226-0.226-0.226-0.591,0-0.817c0.225-0.224,0.59-0.229,0.817,0l2.324,2.318l-2.46,2.463
				C23.78,21.12,23.633,21.176,23.484,21.176z"/>
		</g>
		<path fill="none" stroke="#000000" stroke-width="0.5" stroke-miterlimit="10" d="M24.998,24.998"/>
		<path d="M27.718,43.168h-5.3c-0.319,0-0.577-0.26-0.577-0.578v-4.57c-1.551-0.428-2.993-1.119-4.301-2.059l-2.561,2.602
			c-0.108,0.113-0.219,0.23-0.412,0.174c-0.151,0-0.299-0.059-0.407-0.166l-3.778-3.719c-0.107-0.107-0.171-0.256-0.171-0.41
			c0-0.156,0.063-0.305,0.171-0.412l2.986-2.941c-0.571-1.119-1.024-2.098-1.237-3.416H7.944c-0.319,0-0.579-0.258-0.579-0.576
			l-0.009-5.299c0-0.32,0.258-0.578,0.576-0.58l4.448-0.011c0.321-1.135,0.788-2.217,1.39-3.229l-0.096-0.059l-3.22-3.249
			c-0.226-0.227-0.22-0.593,0.005-0.818l3.776-3.717c0.11-0.107,0.229-0.151,0.411-0.167c0.155,0.002,0.301,0.064,0.406,0.173
			l3.23,3.307c0.938-0.582,2.2-1.246,3.568-1.636l0.014-0.075L21.857,7.41c0-0.319,0.26-0.578,0.579-0.578h5.3
			c0.317,0,0.577,0.257,0.577,0.578l0.011,4.223c1.478,0.316,2.88,0.875,4.182,1.666l2.865-2.77c0.109-0.106,0.257-0.178,0.41-0.163
			c0.154,0.002,0.302,0.064,0.405,0.175l3.683,3.809c0.222,0.229,0.219,0.594-0.012,0.816l-2.778,2.708
			c0.681,1.122,1.19,2.327,1.524,3.591l3.462,0.004c0.153,0,0.301,0.062,0.407,0.171c0.11,0.109,0.171,0.255,0.171,0.409
			L42.63,27.35c0,0.318-0.26,0.576-0.578,0.576l0,0l-3.343-0.004c-0.262,1.162-0.676,2.279-1.231,3.328l2.302,2.229
			c0.23,0.221,0.234,0.588,0.014,0.816l-3.682,3.812c-0.22,0.232-0.587,0.236-0.816,0.016l-2.114-2.029
			c-1.463,1.012-3.129,1.734-4.869,2.107l-0.017,4.391C28.292,42.91,28.036,43.168,27.718,43.168z M22.997,42.014h4.145l0.016-4.291
			c0-0.279,0.2-0.518,0.476-0.566c1.902-0.338,3.723-1.127,5.266-2.285c0.229-0.168,0.54-0.148,0.746,0.043
			c0.033,0.033,0.065,0.07,0.09,0.109l1.946,1.867l2.879-2.982l-2.206-2.133c-0.188-0.186-0.229-0.473-0.098-0.705
			c0.684-1.189,1.159-2.482,1.415-3.834c0.05-0.273,0.29-0.471,0.567-0.471l0,0l3.238,0.002l0.009-4.143l-3.337-0.003
			c-0.271,0-0.503-0.188-0.565-0.451c-0.326-1.45-0.908-2.817-1.726-4.066c-0.151-0.23-0.116-0.538,0.079-0.731l2.703-2.634
			l-2.882-2.978l-2.733,2.644c-0.045,0.053-0.099,0.098-0.161,0.132c-0.188,0.104-0.416,0.101-0.592-0.021
			c-1.418-0.929-2.973-1.546-4.625-1.838c-0.275-0.049-0.477-0.288-0.477-0.569l-0.01-4.121h-4.147v3.853l-0.089,0.54
			c-0.042,0.223-0.21,0.401-0.433,0.455c-1.577,0.388-3.053,1.226-4.011,1.859c-0.249,0.16-0.581,0.112-0.768-0.12l-0.411-0.51
			l-2.665-2.703l-2.952,2.907l2.706,2.751l0.48,0.279c0.134,0.083,0.227,0.215,0.26,0.368c0.034,0.151,0.004,0.311-0.081,0.442
			c-0.758,1.155-1.312,2.418-1.649,3.758c-0.058,0.232-0.253,0.404-0.489,0.433l-0.475,0.059l-3.925,0.012l0.01,4.146h4.114
			c0.296,0,0.546,0.223,0.578,0.518c0.161,1.531,0.672,2.525,1.379,3.902c0.115,0.225,0.071,0.498-0.108,0.676l-2.869,2.828
			l2.943,2.898l2.509-2.551c0.205-0.207,0.537-0.234,0.768-0.051c1.407,1.092,2.995,1.857,4.719,2.271
			c0.259,0.061,0.443,0.293,0.443,0.561V42.014z"/>
	</g>
</g>
</svg>
